<mxfile host="app.diagrams.net" modified="2023-12-03T15:49:40.334Z" agent="Mozilla/5.0 (Windows NT 10.0; Win64; x64) AppleWebKit/537.36 (KHTML, like Gecko) Chrome/119.0.0.0 Safari/537.36" version="22.1.5" etag="lY4rzW-4XKoilrE67-V9" type="github">
  <diagram name="Page-1" id="G5JdW85OzA3mxvgCAeLd">
    <mxGraphModel>
      <root>
        <mxCell id="0" />
        <mxCell id="1" parent="0" />
      </root>
    </mxGraphModel>
  </diagram>
</mxfile>
